<?xml version="1.0" encoding="UTF-8" standalone="no"?>
<!-- Created with Inkscape (http://www.inkscape.org/) -->

<svg
   xmlns:dc="http://purl.org/dc/elements/1.1/"
   xmlns:cc="http://creativecommons.org/ns#"
   xmlns:rdf="http://www.w3.org/1999/02/22-rdf-syntax-ns#"
   xmlns:svg="http://www.w3.org/2000/svg"
   xmlns="http://www.w3.org/2000/svg"
   xmlns:sodipodi="http://sodipodi.sourceforge.net/DTD/sodipodi-0.dtd"
   xmlns:inkscape="http://www.inkscape.org/namespaces/inkscape"
   width="192"
   height="45"
   id="svg3449"
   version="1.1"
   inkscape:version="0.48.3.1 r9886"
   sodipodi:docname="logo.svg">
  <defs
     id="defs3451" />
  <sodipodi:namedview
     id="base"
     pagecolor="#ffffff"
     bordercolor="#666666"
     borderopacity="1.0"
     inkscape:pageopacity="0.0"
     inkscape:pageshadow="2"
     inkscape:zoom="3.2484416"
     inkscape:cx="146.93145"
     inkscape:cy="16.559897"
     inkscape:document-units="px"
     inkscape:current-layer="layer1"
     showgrid="false"
     inkscape:window-width="1280"
     inkscape:window-height="724"
     inkscape:window-x="1360"
     inkscape:window-y="24"
     inkscape:window-maximized="1" />
  <metadata
     id="metadata3454">
    <rdf:RDF>
      <cc:Work
         rdf:about="">
        <dc:format>image/svg+xml</dc:format>
        <dc:type
           rdf:resource="http://purl.org/dc/dcmitype/StillImage" />
        <dc:title />
      </cc:Work>
    </rdf:RDF>
  </metadata>
  <g
     inkscape:label="Layer 1"
     inkscape:groupmode="layer"
     id="layer1"
     transform="translate(0,-1007.3622)">
    <path
       inkscape:export-ydpi="134.73685"
       inkscape:export-xdpi="134.73685"
       inkscape:export-filename="/home/bastin/logo.png"
       inkscape:connector-curvature="0"
       id="path3384"
       d="m 13.853299,1022.7361 0,8.8318 c -1.720132,0.5477 -2.966925,2.075 -2.966925,3.8984 0,1.8234 1.246793,3.3507 2.966925,3.8984 l 0,4.8989 -9.866752,0 0,-12.7302 9.866752,-8.7973 z"
       style="fill:#ff6600;fill-opacity:1;stroke:#ffffff;stroke-width:0;stroke-miterlimit:4;stroke-opacity:1;stroke-dasharray:none" />
    <path
       inkscape:export-ydpi="134.73685"
       inkscape:export-xdpi="134.73685"
       inkscape:export-filename="/home/bastin/logo.png"
       inkscape:connector-curvature="0"
       id="path3386"
       d="m 15.440259,1025.0131 5.17487,6.6928 4.76088,-2.8289 0,17.974 -9.93575,0 0,-7.2793 c 2.293811,-0.107 4.105397,-1.893 4.105397,-4.1054 0,-2.2124 -1.811586,-3.9984 -4.105397,-4.1054 l 0,-6.3478 z"
       style="fill:#00da00;fill-opacity:1;stroke:#ffffff;stroke-width:0;stroke-miterlimit:4;stroke-opacity:1;stroke-dasharray:none" />
    <path
       inkscape:export-ydpi="134.73685"
       inkscape:export-xdpi="134.73685"
       inkscape:export-filename="/home/bastin/logo.png"
       inkscape:connector-curvature="0"
       id="path3388"
       d="m 49.93939,1022.8396 9.866752,8.7973 0,12.5922 -9.866752,0 0,-4.5194 c 2.36101,-0.036 4.277893,-1.8469 4.277893,-4.1054 0,-2.2585 -1.916883,-4.1037 -4.277893,-4.1399 l 0,-8.6248 z"
       style="fill:#800080;fill-opacity:1;stroke:#ffffff;stroke-width:0;stroke-miterlimit:4;stroke-opacity:1;stroke-dasharray:none" />
    <path
       inkscape:export-ydpi="134.73685"
       inkscape:export-xdpi="134.73685"
       inkscape:export-filename="/home/bastin/logo.png"
       inkscape:connector-curvature="0"
       id="path3390"
       d="m 36.862266,1022.0302 0,24.4944 -9.93575,0 0,-18.5951 9.93575,-5.8993 z"
       style="fill:#008dff;fill-opacity:1;stroke:#ffffff;stroke-width:0;stroke-miterlimit:4;stroke-opacity:1;stroke-dasharray:none" />
    <path
       inkscape:export-ydpi="134.73685"
       inkscape:export-xdpi="134.73685"
       inkscape:export-filename="/home/bastin/logo.png"
       inkscape:connector-curvature="0"
       id="path3392"
       d="m 48.35243,1015.2498 0,16.4906 c -1.640149,0.5887 -2.828929,2.095 -2.828929,3.8639 0,1.7688 1.18878,3.2407 2.828929,3.8294 l 0,7.3828 -9.93575,0 0,-25.6673 9.93575,-5.8994 z"
       style="fill:#008080;fill-opacity:1;stroke:#ffffff;stroke-width:0;stroke-miterlimit:4;stroke-opacity:1;stroke-dasharray:none" />
    <path
       inkscape:export-ydpi="134.73685"
       inkscape:export-xdpi="134.73685"
       inkscape:export-filename="/home/bastin/logo.png"
       style="fill:#808080;fill-opacity:1;stroke:#ffffff;stroke-width:0;stroke-miterlimit:4;stroke-opacity:1;stroke-dasharray:none"
       d="m 59.765957,1046.6249 0,2.4208 c 0,1.3049 -1.316751,2.3539 -2.937526,2.3539 l -4.004439,0 c -1.620763,0 -2.923649,-1.049 -2.923649,-2.3539 l 0,-2.4208 9.865614,0 z"
       id="path3394"
       inkscape:connector-curvature="0" />
    <path
       inkscape:export-ydpi="134.73685"
       inkscape:export-xdpi="134.73685"
       inkscape:export-filename="/home/bastin/logo.png"
       inkscape:connector-curvature="0"
       id="path3396"
       d="m 13.895945,1046.6249 0,2.4208 c 0,1.3049 -1.31674,2.3539 -2.937515,2.3539 l -4.004438,0 c -1.620764,0 -2.923661,-1.049 -2.923661,-2.3539 l 0,-2.4208 9.865614,0 z"
       style="fill:#808080;fill-opacity:1;stroke:#ffffff;stroke-width:0;stroke-miterlimit:4;stroke-opacity:1;stroke-dasharray:none" />
    <g
       style="font-size:19.50494385px;font-style:normal;font-weight:normal;line-height:125%;letter-spacing:0px;word-spacing:0px;fill:#ffffff;fill-opacity:1;stroke:none;font-family:Sans"
       id="text3398">
      <path
         d="m 145.42375,1045.9365 2.94525,0 1.5994,-3.7254 5.1298,0 1.54089,3.7254 2.94525,0 -6.04653,-14.4141 -2.10654,0 -6.00752,14.4141 m 5.5199,-6.2806 1.54089,-4.3691 1.54089,4.3691 -3.08178,0"
         style="font-variant:normal;font-weight:600;font-stretch:normal;fill:#ffffff;font-family:URW Gothic L;-inkscape-font-specification:URW Gothic L Semi-Bold"
         id="path3555" />
      <path
         d="m 170.39465,1035.1308 -2.59416,0 0,5.0908 c 0,1.4238 -0.0975,2.126 -0.4096,2.5941 -0.37059,0.6242 -1.09228,0.9948 -1.97,0.9948 -0.66317,0 -1.1703,-0.2146 -1.52139,-0.6827 -0.37059,-0.4681 -0.52663,-1.2678 -0.52663,-2.7112 l 0,-5.2858 -2.59416,0 0,5.793 c 0,1.8334 0.21456,2.7697 0.81921,3.6669 0.72168,1.0337 1.89198,1.5994 3.29634,1.5994 1.30683,0 2.12604,-0.3316 3.10128,-1.2873 l 0,1.0337 2.39911,0 0,-10.8057"
         style="font-variant:normal;font-weight:600;font-stretch:normal;fill:#ffffff;font-family:URW Gothic L;-inkscape-font-specification:URW Gothic L Semi-Bold"
         id="path3557" />
      <path
         d="m 172.86416,1045.9365 2.59416,0 0,-8.4456 1.56039,0 0,-2.3601 -1.56039,0 0,-3.6084 -2.59416,0 0,3.6084 -1.26782,0 0,2.3601 1.26782,0 0,8.4456"
         style="font-variant:normal;font-weight:600;font-stretch:normal;fill:#ffffff;font-family:URW Gothic L;-inkscape-font-specification:URW Gothic L Semi-Bold"
         id="path3559" />
      <path
         d="m 183.58761,1034.8772 c -3.14029,0 -5.71495,2.5552 -5.71495,5.6565 0,3.1207 2.57466,5.6564 5.73446,5.6564 3.14029,0 5.75395,-2.5357 5.75395,-5.5784 0,-3.2183 -2.51614,-5.7345 -5.77346,-5.7345 m 0.0195,2.3796 c 1.73593,0 3.14029,1.4824 3.14029,3.2769 0,1.8139 -1.40436,3.2768 -3.12079,3.2768 -1.75544,0 -3.1403,-1.4629 -3.1403,-3.3159 0,-1.7749 1.42387,-3.2378 3.1208,-3.2378"
         style="font-variant:normal;font-weight:600;font-stretch:normal;fill:#ffffff;font-family:URW Gothic L;-inkscape-font-specification:URW Gothic L Semi-Bold"
         id="path3561" />
    </g>
    <g
       style="font-size:19.44851494px;font-style:normal;font-variant:normal;font-stretch:normal;line-height:125%;letter-spacing:0px;word-spacing:0px;fill:#ffffff;fill-opacity:1;stroke:none;font-family:URW Gothic L;-inkscape-font-specification:URW Gothic L Book"
       id="text3402">
      <path
         d="m 68.522062,1046.2678 1.516984,0 2.10044,-4.8427 6.690289,0 2.080991,4.8427 1.57533,0 -6.184628,-14.3724 -1.614227,0 -6.165179,14.3724 m 4.161982,-6.1457 2.820035,-6.5931 2.761689,6.5931 -5.581724,0"
         style="fill:#ffffff"
         id="path3538" />
      <path
         d="m 83.929844,1046.2678 1.43919,0 0,-5.854 c 0,-1.1863 0.155589,-1.8087 0.564007,-2.4116 0.564007,-0.8168 1.555883,-1.303 2.683895,-1.303 1.050219,0 2.003198,0.4278 2.586653,1.1474 0.505661,0.6613 0.700147,1.4392 0.700147,2.8395 l 0,5.5817 1.43919,0 0,-5.5817 c 0,-1.7893 -0.252832,-2.7422 -0.933529,-3.6563 -0.836285,-1.0502 -2.11989,-1.6531 -3.617424,-1.6531 -1.400292,0 -2.528308,0.5445 -3.422939,1.6336 l 0,-1.3808 -1.43919,0 0,10.6383"
         style="fill:#ffffff"
         id="path3540" />
      <path
         d="m 106.61411,1035.6295 -1.43919,0 0,1.8865 c -1.05022,-1.4781 -2.35328,-2.1393 -4.20088,-2.1393 -3.189557,0 -5.601176,2.4116 -5.601176,5.6011 0,3.1701 2.431068,5.5429 5.698416,5.5429 1.80871,0 2.97562,-0.603 4.10364,-2.1199 l 0,1.867 1.43919,0 0,-10.6383 m -5.60118,1.0697 c 2.33382,0 4.16199,1.8281 4.16199,4.2008 0,2.4116 -1.78927,4.2982 -4.08419,4.2982 -2.411616,0 -4.259227,-1.8866 -4.259227,-4.3176 0,-2.3144 1.867059,-4.1814 4.181427,-4.1814"
         style="fill:#ffffff"
         id="path3542" />
      <path
         d="m 109.07617,1046.2678 1.43919,0 0,-14.3724 -1.43919,0 0,14.3724"
         style="fill:#ffffff"
         id="path3544" />
      <path
         d="m 114.29262,1050.0019 1.53643,0 6.14574,-14.3724 -1.53644,0 -3.59797,8.4795 -3.3646,-8.4795 -1.57533,0 4.12309,10.2882 -1.73092,4.0842"
         style="fill:#ffffff"
         id="path3546" />
      <path
         d="m 124.66172,1046.2678 1.43919,0 0,-9.3353 2.39217,0 0,-1.303 -2.39217,0 0,-3.7341 -1.43919,0 0,3.7341 -2.29492,0 0,1.303 2.29492,0 0,9.3353"
         style="fill:#ffffff"
         id="path3548" />
      <path
         d="m 129.96813,1046.2678 1.43919,0 0,-10.6383 -1.43919,0 0,10.6383 m 0,-11.9219 1.43919,0 0,-2.4505 -1.43919,0 0,2.4505"
         style="fill:#ffffff"
         id="path3550" />
      <path
         d="m 142.8084,1043.1366 c -1.10856,1.4781 -2.13934,2.0616 -3.63687,2.0616 -2.39217,0 -4.27868,-1.8866 -4.27868,-4.2398 0,-2.3922 1.84762,-4.2592 4.22033,-4.2592 1.57533,0 2.87838,0.7584 3.69522,2.1587 l 1.61423,0 c -0.85574,-2.1393 -2.89783,-3.4812 -5.29,-3.4812 -3.18955,0 -5.69841,2.4505 -5.69841,5.5428 0,3.1701 2.52831,5.6012 5.79565,5.6012 1.3225,0 2.54776,-0.4279 3.53963,-1.2059 0.6807,-0.5445 1.08912,-1.0696 1.67258,-2.1782 l -1.63368,0"
         style="fill:#ffffff"
         id="path3552" />
    </g>
    <path
       inkscape:export-ydpi="134.73685"
       inkscape:export-xdpi="134.73685"
       inkscape:export-filename="/home/bastin/logo.png"
       inkscape:connector-curvature="0"
       id="path3406"
       d="m 47.837041,1010.2321 c 0.656201,0 1.180058,0.5513 1.180058,1.2287 0,0.6773 -0.523857,1.2287 -1.180058,1.2287 -0.656157,0 -1.192191,-0.5514 -1.192191,-1.2287 0,-0.6774 0.536034,-1.2287 1.192191,-1.2287 z m 0,0.2553 c -0.529178,0 -0.961052,0.4513 -0.961052,0.9976 0,0.5462 0.431874,0.9854 0.961052,0.9854 0.529211,0 0.948908,-0.4392 0.948908,-0.9854 0,-0.5463 -0.419697,-0.9976 -0.948908,-0.9976 z"
       style="fill:#ffffff;fill-opacity:1;stroke:#ffffff;stroke-width:0;stroke-miterlimit:4;stroke-opacity:1;stroke-dasharray:none" />
    <path
       inkscape:export-ydpi="134.73685"
       inkscape:export-xdpi="134.73685"
       inkscape:export-filename="/home/bastin/logo.png"
       style="fill:#ffffff;fill-opacity:1;stroke:#ffffff;stroke-width:0;stroke-miterlimit:4;stroke-opacity:1;stroke-dasharray:none"
       d="m 21.78025,1025.1506 c 0.656201,0 1.180058,0.5514 1.180058,1.2288 0,0.6773 -0.523857,1.2287 -1.180058,1.2287 -0.656157,0 -1.192191,-0.5514 -1.192191,-1.2287 0,-0.6774 0.536034,-1.2288 1.192191,-1.2288 z m 0,0.2554 c -0.529178,0 -0.961052,0.4513 -0.961052,0.9975 0,0.5463 0.431874,0.9854 0.961052,0.9854 0.529211,0 0.948908,-0.4391 0.948908,-0.9854 0,-0.5462 -0.419697,-0.9975 -0.948908,-0.9975 z"
       id="path3408"
       inkscape:connector-curvature="0" />
    <rect
       inkscape:export-ydpi="134.73685"
       inkscape:export-xdpi="134.73685"
       inkscape:export-filename="/home/bastin/logo.png"
       transform="matrix(0.52787234,0.84932373,0.86301838,-0.50517253,0,0)"
       y="-522.21246"
       x="897.33258"
       height="27.511583"
       width="0.2125039"
       id="rect3410"
       style="fill:#ffffff;fill-opacity:1;stroke:#ffffff;stroke-width:0;stroke-miterlimit:4;stroke-opacity:1;stroke-dasharray:none" />
    <path
       inkscape:export-ydpi="134.73685"
       inkscape:export-xdpi="134.73685"
       inkscape:export-filename="/home/bastin/logo.png"
       inkscape:connector-curvature="0"
       id="path3412"
       d="m 13.152884,1020.0607 0.163741,0.1483 -9.682035,7.9939 -0.03853,-0.2384 9.55679,-7.9038 z m -21.0897548,17.4197 0.03301,0.2043 -0.02848,0.039 -0.1296172,-0.1538 0.1252232,-0.09 z"
       style="fill:#ffffff;fill-opacity:1;stroke:#ffffff;stroke-width:0;stroke-miterlimit:4;stroke-opacity:1;stroke-dasharray:none" />
    <path
       inkscape:export-ydpi="134.73685"
       inkscape:export-xdpi="134.73685"
       inkscape:export-filename="/home/bastin/logo.png"
       inkscape:connector-curvature="0"
       id="path3414"
       d="m 14.093303,1018.1958 c 0.656201,0 1.180058,0.5513 1.180058,1.2287 0,0.6773 -0.523857,1.2287 -1.180058,1.2287 -0.656157,0 -1.192191,-0.5514 -1.192191,-1.2287 0,-0.6774 0.536034,-1.2287 1.192191,-1.2287 z m 0,0.2553 c -0.529178,0 -0.961052,0.4513 -0.961052,0.9976 0,0.5462 0.431874,0.9854 0.961052,0.9854 0.529211,0 0.948908,-0.4392 0.948908,-0.9854 0,-0.5463 -0.419697,-0.9976 -0.948908,-0.9976 z"
       style="fill:#ffffff;fill-opacity:1;stroke:#ffffff;stroke-width:0;stroke-miterlimit:4;stroke-opacity:1;stroke-dasharray:none" />
    <path
       inkscape:export-ydpi="134.73685"
       inkscape:export-xdpi="134.73685"
       inkscape:export-filename="/home/bastin/logo.png"
       inkscape:connector-curvature="0"
       id="path3416"
       d="m 15.102708,1020.1806 5.446381,5.5209 -0.06116,0.1753 -5.385243,-5.4333 0,-0.2629 z m 14.564507,14.6931 0.09174,0.1168 -0.122441,0.088 -0.03058,-0.029 0.06116,-0.1752 z"
       style="fill:#ffffff;fill-opacity:1;stroke:#ffffff;stroke-width:0;stroke-miterlimit:4;stroke-opacity:1;stroke-dasharray:none" />
    <path
       inkscape:export-ydpi="134.73685"
       inkscape:export-xdpi="134.73685"
       inkscape:export-filename="/home/bastin/logo.png"
       style="fill:#ffffff;fill-opacity:1;stroke:#ffffff;stroke-width:0;stroke-miterlimit:4;stroke-opacity:1;stroke-dasharray:none"
       d="m 2.803111,1027.8764 c 0.656201,0 1.180058,0.5513 1.180058,1.2287 0,0.6773 -0.523857,1.2287 -1.180058,1.2287 -0.656157,0 -1.19219,-0.5514 -1.19219,-1.2287 0,-0.6774 0.536033,-1.2287 1.19219,-1.2287 z m 0,0.2553 c -0.529178,0 -0.961052,0.4513 -0.961052,0.9976 0,0.5462 0.431874,0.9854 0.961052,0.9854 0.529211,0 0.948909,-0.4392 0.948909,-0.9854 0,-0.5463 -0.419698,-0.9976 -0.948909,-0.9976 z"
       id="path3418"
       inkscape:connector-curvature="0" />
  </g>
</svg>
